# xmcd CD database file
#
# Track frame offsets:
#	150
#	20155
#	36504
#	51559
#	66503
#	80972
#	98712
#	108358
#	119161
#	136600
#	153259
#	173868
#	188901
#	202890
#	215080
#	227832
#	239256
#	260443
#	273368
#	283863
#	296290
#	307103
#	318450
#	336689
#
# Disc length: 4787 seconds
#
# Revision: 0
# Processed by: cddbd v1.4PL0 Copyright (c) Steve Scherf et al.
# Submitted via: CDex 1.40Release
#
DISCID=8312b118
DTITLE=Johnny Cash - Best of American 1-4
DYEAR=1900
DGENRE=Country
TTITLE0=The man comes around
TTITLE1=Hurt
TTITLE2=Personal Jesus
TTITLE3=Danny boy
TTITLE4=Desperado
TTITLE5=Bridge over troubled water
TTITLE6=I won´t back down
TTITLE7=Solitary man
TTITLE8=One
TTITLE9=I see a darknes
TTITLE10=The mercy seat
TTITLE11=Wayfaring stranger
TTITLE12=I´m leaving now
TTITLE13=Sea of heartbreak
TTITLE14=Rusty cage
TTITLE15=Southern accents
TTITLE16=Kneeling drunkard´s plea
TTITLE17=Unchained
TTITLE18=Delia´s gone
TTITLE19=The beast is me
TTITLE20=Drive on
TTITLE21=Thirteen
TTITLE22=Bird on a wire
TTITLE23=The man who couldn´t cry
EXTD=ID3G: 2
EXTT0=
EXTT1=
EXTT2=
EXTT3=
EXTT4=
EXTT5=
EXTT6=
EXTT7=
EXTT8=
EXTT9=
EXTT10=
EXTT11=
EXTT12=
EXTT13=
EXTT14=
EXTT15=
EXTT16=
EXTT17=
EXTT18=
EXTT19=
EXTT20=
EXTT21=
EXTT22=
EXTT23=
PLAYORDER=
